<svg width="20" height="20" viewBox="0 0 20 20" fill="none" xmlns="http://www.w3.org/2000/svg">
<mask id="path-1-inside-1_7_71" fill="white">
<path fill-rule="evenodd" clip-rule="evenodd" d="M1.75401 10.4674C0.674381 9.36314 0 7.794 0 6.05324C0 2.71013 2.48731 0 5.55556 0C7.37289 0 8.98641 0.950774 10 2.42071C11.0136 0.950774 12.6271 0 14.4444 0C17.5127 0 20 2.71013 20 6.05324C20 7.79399 19.3256 9.36312 18.246 10.4674L10.7751 19.6319C10.3749 20.1227 9.62506 20.1227 9.22491 19.6319L1.75401 10.4674Z"/>
</mask>
<path d="M1.75401 10.4674L3.07166 9.39326L3.0232 9.33381L2.96958 9.27897L1.75401 10.4674ZM10 2.42071L8.60047 3.38575L10 5.41539L11.3995 3.38575L10 2.42071ZM18.246 10.4674L17.0304 9.27896L16.9768 9.3338L16.9284 9.39324L18.246 10.4674ZM10.7751 19.6319L9.45744 18.5577L9.45744 18.5577L10.7751 19.6319ZM9.22491 19.6319L10.5426 18.5577L10.5426 18.5577L9.22491 19.6319ZM2.96958 9.27897C2.20308 8.49497 1.7 7.35347 1.7 6.05324H-1.7C-1.7 8.23452 -0.854315 10.2313 0.538437 11.6558L2.96958 9.27897ZM1.7 6.05324C1.7 3.50877 3.56055 1.7 5.55556 1.7V-1.7C1.41407 -1.7 -1.7 1.91148 -1.7 6.05324H1.7ZM5.55556 1.7C6.75318 1.7 7.86808 2.32362 8.60047 3.38575L11.3995 1.45566C10.1047 -0.422074 7.9926 -1.7 5.55556 -1.7V1.7ZM11.3995 3.38575C12.1319 2.32362 13.2468 1.7 14.4444 1.7V-1.7C12.0074 -1.7 9.89526 -0.422073 8.60047 1.45566L11.3995 3.38575ZM14.4444 1.7C16.4395 1.7 18.3 3.50877 18.3 6.05324H21.7C21.7 1.91148 18.5859 -1.7 14.4444 -1.7V1.7ZM18.3 6.05324C18.3 7.35347 17.7969 8.49496 17.0304 9.27896L19.4616 11.6558C20.8543 10.2313 21.7 8.23451 21.7 6.05324H18.3ZM16.9284 9.39324L9.45744 18.5577L12.0927 20.706L19.5637 11.5415L16.9284 9.39324ZM9.45744 18.5577C9.73755 18.2141 10.2625 18.2141 10.5426 18.5577L7.90726 20.706C8.98767 22.0314 11.0123 22.0314 12.0927 20.706L9.45744 18.5577ZM10.5426 18.5577L3.07166 9.39326L0.436359 11.5416L7.90726 20.706L10.5426 18.5577Z" fill="#010101" mask="url(#path-1-inside-1_7_71)"/>
</svg>
