<svg width="20" height="19" viewBox="0 0 20 19" fill="none" xmlns="http://www.w3.org/2000/svg">
<path d="M18.0177 3.62184L12.0485 0.104806L11.9873 7.03274L18.0177 3.62184ZM1.89826 12.0702C2.49455 12.0036 2.4946 12.004 2.49464 12.0044C2.49465 12.0045 2.49469 12.0049 2.49471 12.005C2.49475 12.0054 2.49477 12.0057 2.49479 12.0058C2.49482 12.0061 2.4948 12.0059 2.49473 12.0053C2.49461 12.004 2.49432 12.001 2.49391 11.9963C2.49309 11.9869 2.4918 11.9707 2.49042 11.948C2.48767 11.9028 2.48459 11.832 2.4843 11.7393C2.48371 11.5537 2.49428 11.2812 2.54041 10.9489C2.63277 10.2835 2.86633 9.38691 3.43077 8.46528C4.54038 6.65351 7.02072 4.60118 12.6627 4.17235L12.5717 2.9758C6.64402 3.42635 3.76489 5.6221 2.40744 7.83855C1.73836 8.93103 1.46149 9.99363 1.35181 10.7839C1.29691 11.1794 1.28356 11.5088 1.2843 11.7431C1.28467 11.8604 1.28858 11.9542 1.29264 12.0209C1.29466 12.0543 1.29674 12.0809 1.29843 12.1004C1.29928 12.1101 1.30003 12.118 1.30064 12.1241C1.30094 12.1272 1.30121 12.1298 1.30143 12.1319C1.30154 12.1329 1.30164 12.1339 1.30173 12.1347C1.30178 12.1351 1.30184 12.1356 1.30186 12.1359C1.30191 12.1363 1.30197 12.1368 1.89826 12.0702Z" fill="black"/>
<path d="M1.86961 14.4395L7.74462 18.1116L7.98724 11.1877L1.86961 14.4395ZM17.5483 5.19887C16.962 5.32621 16.9619 5.32586 16.9618 5.32555C16.9618 5.32548 16.9617 5.3252 16.9617 5.32507C16.9617 5.32483 16.9616 5.32471 16.9616 5.32472C16.9616 5.32474 16.9618 5.32528 16.962 5.32634C16.9624 5.32844 16.9633 5.33259 16.9644 5.33871C16.9668 5.35096 16.9706 5.37109 16.9753 5.39861C16.9847 5.45367 16.9977 5.53809 17.0106 5.64782C17.0364 5.86758 17.0615 6.18698 17.0562 6.57394C17.0455 7.35057 16.9126 8.38117 16.4339 9.42308C15.5026 11.45 13.1664 13.7179 7.23645 14.0295L7.29942 15.2278C13.5588 14.899 16.3628 12.452 17.5243 9.92411C18.092 8.68863 18.2438 7.48186 18.2561 6.59048C18.2622 6.14344 18.2334 5.77117 18.2024 5.50776C18.1869 5.3759 18.1708 5.27087 18.1582 5.19686C18.1519 5.15985 18.1464 5.13055 18.1424 5.1095C18.1403 5.09897 18.1386 5.0905 18.1373 5.08415C18.1366 5.08098 18.1361 5.07833 18.1356 5.07622C18.1354 5.07517 18.1352 5.07425 18.135 5.07347C18.135 5.07308 18.1349 5.07259 18.1348 5.0724C18.1347 5.07194 18.1346 5.07153 17.5483 5.19887Z" fill="black"/>
</svg>
