<svg width="40" height="40" viewBox="0 0 40 40" fill="none" xmlns="http://www.w3.org/2000/svg">
<path fill-rule="evenodd" clip-rule="evenodd" d="M27.5 21C32.1944 21 36 17.1944 36 12.5C36 7.80558 32.1944 4 27.5 4C22.8056 4 19 7.80558 19 12.5C19 17.1944 22.8056 21 27.5 21ZM27.5 25C34.4036 25 40 19.4036 40 12.5C40 5.59644 34.4036 0 27.5 0C20.5964 0 15 5.59644 15 12.5C15 15.1028 15.7955 17.5197 17.1566 19.5211L0 36.6777L2.82843 39.5061L19.9054 22.4291C22.0105 24.0417 24.6433 25 27.5 25ZM30.5 11C31.8807 11 33 9.88071 33 8.5C33 7.11929 31.8807 6 30.5 6C29.1193 6 28 7.11929 28 8.5C28 9.88071 29.1193 11 30.5 11Z" fill="black"/>
</svg>
