<svg width="23" height="15" viewBox="0 0 23 15" fill="none" xmlns="http://www.w3.org/2000/svg">
<path d="M23 10.8897L16.9952 7.43391L17.0048 14.3621L23 10.8897ZM1 4.74777C3.39026 4.74777 5.11304 5.09605 6.46723 5.61732C7.82148 6.13862 8.83869 6.84459 9.81678 7.60866C11.7818 9.14373 13.6098 10.9498 17.5182 11.4915L17.6829 10.3029C14.1519 9.8135 12.5805 8.24489 10.5555 6.663C9.53861 5.86861 8.41317 5.08054 6.89831 4.49742C5.38339 3.91428 3.51059 3.54777 1 3.54777L1 4.74777Z" fill="black"/>
<path d="M23 4.14774L16.9945 0.693212L17.0055 7.62141L23 4.14774ZM0.983247 12.1991C4.18979 12.2887 6.39659 11.9343 8.02354 11.3011C9.66598 10.6619 10.6743 9.75507 11.5018 8.82748C12.3531 7.87331 12.9104 7.04184 13.807 6.30171C14.6561 5.60075 15.7927 5.01509 17.6824 4.75056L17.516 3.56215C15.4262 3.8547 14.0778 4.52208 13.0431 5.3763C12.0558 6.19134 11.3303 7.21718 10.6064 8.02861C9.85875 8.86662 8.99942 9.63367 7.58832 10.1828C6.16175 10.738 4.12909 11.0865 1.01675 10.9996L0.983247 12.1991Z" fill="black"/>
</svg>
